<svg width="48" height="48" viewBox="0 0 48 48" fill="none" xmlns="http://www.w3.org/2000/svg">
<path d="M7.5945 27.234L9.0015 30C8.0325 30.938 7.5325 31.938 7.5015 33C7.6265 35 9.228 36.7345 12.306 38.2035C15.384 39.6725 19.2825 40.438 24.0015 40.5C28.7205 40.437 32.619 39.6715 35.697 38.2035C38.775 36.7355 40.3765 35.001 40.5015 33C40.4705 31.937 39.9705 30.937 39.0015 30L40.455 27.234C41.424 28.047 42.174 28.9375 42.705 29.9055C43.236 30.8735 43.5015 31.905 43.5015 33C43.3455 36.094 41.4235 38.602 37.7355 40.524C34.0475 42.446 29.4695 43.438 24.0015 43.5C18.5325 43.437 13.9545 42.445 10.2675 40.524C6.5805 38.603 4.6585 36.095 4.5015 33C4.5015 31.906 4.775 30.8745 5.322 29.9055C5.869 28.9365 6.627 28.046 7.596 27.234H7.5945ZM7.5945 18.234L9.0015 21C8.0325 21.938 7.5325 22.938 7.5015 24C7.6265 26 9.228 27.7345 12.306 29.2035C15.384 30.6725 19.2825 31.438 24.0015 31.5C28.7205 31.437 32.619 30.6715 35.697 29.2035C38.775 27.7355 40.3765 26.001 40.5015 24C40.4705 22.937 39.9705 21.937 39.0015 21L40.455 18.234C41.424 19.047 42.174 19.9375 42.705 20.9055C43.236 21.8735 43.5015 22.905 43.5015 24C43.3455 27.094 41.4235 29.602 37.7355 31.524C34.0475 33.446 29.4695 34.438 24.0015 34.5C18.5325 34.437 13.9545 33.445 10.2675 31.524C6.5805 29.603 4.6585 27.095 4.5015 24C4.5015 22.906 4.775 21.8745 5.322 20.9055C5.869 19.9365 6.627 19.046 7.596 18.234H7.5945ZM24 25.5C18.531 25.437 13.953 24.445 10.266 22.524C6.579 20.603 4.657 18.095 4.5 15C4.656 11.906 6.578 9.398 10.266 7.476C13.954 5.554 18.532 4.562 24 4.5C29.469 4.563 34.047 5.555 37.734 7.476C41.421 9.397 43.343 11.905 43.5 15C43.344 18.094 41.422 20.602 37.734 22.524C34.046 24.446 29.468 25.438 24 25.5V25.5ZM24 22.5C28.719 22.437 32.6175 21.6715 35.6955 20.2035C38.7735 18.7355 40.375 17.001 40.5 15C40.375 13 38.7735 11.2655 35.6955 9.7965C32.6175 8.3275 28.719 7.562 24 7.5C19.281 7.563 15.3825 8.3285 12.3045 9.7965C9.2265 11.2645 7.625 12.999 7.5 15C7.625 17 9.2265 18.7345 12.3045 20.2035C15.3825 21.6725 19.281 22.438 24 22.5Z" fill="#32245B"/>
</svg>
