<svg width="60" height="60" viewBox="0 0 60 60" fill="none" xmlns="http://www.w3.org/2000/svg">
<path d="M5 7.5H20C22.6522 7.5 25.1957 8.55357 27.0711 10.4289C28.9464 12.3043 30 14.8478 30 17.5V52.5C30 50.5109 29.2098 48.6032 27.8033 47.1967C26.3968 45.7902 24.4891 45 22.5 45H5V7.5Z" stroke="#333984" stroke-width="3" stroke-linecap="round" stroke-linejoin="round"/>
<path d="M55 7.5H40C37.3478 7.5 34.8043 8.55357 32.9289 10.4289C31.0536 12.3043 30 14.8478 30 17.5V52.5C30 50.5109 30.7902 48.6032 32.1967 47.1967C33.6032 45.7902 35.5109 45 37.5 45H55V7.5Z" stroke="#333984" stroke-width="3" stroke-linecap="round" stroke-linejoin="round"/>
</svg>
