<svg width="48" height="48" viewBox="0 0 48 48" fill="none" xmlns="http://www.w3.org/2000/svg">
<path d="M9 6V39H27V6H9ZM7.5 3H28.5C28.938 3 29.2975 3.1405 29.5785 3.4215C29.8595 3.7025 30 4.062 30 4.5V40.5C30 40.938 29.8595 41.2975 29.5785 41.5785C29.2975 41.8595 28.938 42 28.5 42H7.5C7.062 42 6.7025 41.8595 6.4215 41.5785C6.1405 41.2975 6 40.938 6 40.5V4.5C6 4.062 6.1405 3.7025 6.4215 3.4215C6.7025 3.1405 7.062 3 7.5 3ZM12 12H24V15H12V12ZM12 21H24V24H12V21ZM12 30H24V33H12V30ZM30 24H36V27H30V24ZM30 30H36V33H30V30ZM3 39H45V42H3V39ZM30 18V39H39V18H30ZM28.5 15H40.5C40.938 15 41.2975 15.1405 41.5785 15.4215C41.8595 15.7025 42 16.062 42 16.5V40.5C42 40.938 41.8595 41.2975 41.5785 41.5785C41.2975 41.8595 40.938 42 40.5 42H28.5C28.062 42 27.7025 41.8595 27.4215 41.5785C27.1405 41.2975 27 40.938 27 40.5V16.5C27 16.062 27.1405 15.7025 27.4215 15.4215C27.7025 15.1405 28.062 15 28.5 15Z" fill="#333984"/>
</svg>
