<svg width="48" height="48" viewBox="0 0 48 48" fill="none" xmlns="http://www.w3.org/2000/svg">
<g clip-path="url(#clip0_839_12)">
<path d="M21.2266 8.04441C19.0986 4.71675 15.4671 2.73007 11.5124 2.73007C9.31704 2.73007 7.17464 3.35799 5.31694 4.54601C2.72492 6.20356 0.933592 8.77138 0.272797 11.7763C-0.387998 14.7812 0.16098 17.8636 1.81863 20.4556L14.2886 39.9556C16.4166 43.2831 20.0479 45.2698 24.0027 45.2699C24.0028 45.2699 24.0028 45.2699 24.0029 45.2699C26.1981 45.2699 28.3406 44.642 30.1982 43.454C32.7902 41.7964 34.5815 39.2287 35.2423 36.2237C35.9031 33.2188 35.3542 30.1364 33.6965 27.5444L21.2266 8.04441ZM1.7688 12.1053C2.34167 9.49988 3.89486 7.27364 6.14224 5.83645C7.75292 4.8064 9.61001 4.26192 11.5124 4.26192C14.942 4.26192 18.0911 5.98442 19.9361 8.86972L25.7585 17.9744L8.93145 28.7351L3.10908 19.6304C1.67189 17.3831 1.19593 14.7106 1.7688 12.1053ZM33.7463 35.8947C33.1735 38.5001 31.6203 40.7264 29.3729 42.1635C27.7621 43.1937 25.9051 43.7382 24.0027 43.7381C20.5731 43.738 17.4241 42.0155 15.579 39.1303L9.75665 30.0256L26.5837 19.2648L32.4061 28.3695C33.8431 30.6169 34.3191 33.2894 33.7463 35.8947Z" fill="#32245B"/>
<path d="M8.9843 25.9745C9.13053 26.2031 9.37776 26.3278 9.63019 26.3278C9.77141 26.3278 9.91427 26.2888 10.0421 26.207C10.3984 25.9792 10.5026 25.5056 10.2746 25.1492L5.69003 17.9799C4.69368 16.4219 4.36374 14.5693 4.76087 12.7632C5.158 10.957 6.23472 9.4137 7.7926 8.41735C8.14889 8.18953 8.25305 7.71581 8.02512 7.35953C7.7972 7.00314 7.32368 6.89898 6.9673 7.12691C5.06467 8.34362 3.74982 10.2285 3.26476 12.4342C2.77981 14.6399 3.18276 16.9025 4.39948 18.8051L8.9843 25.9745Z" fill="#32245B"/>
<path d="M24.003 40.6746C21.6235 40.6746 19.4392 39.4802 18.1599 37.4799L13.5752 30.3105C13.3473 29.9541 12.8737 29.8501 12.5174 30.0779C12.1611 30.3057 12.0569 30.7793 12.2848 31.1357L16.8696 38.3051C18.4316 40.7479 21.0984 42.2063 24.003 42.2063C24.4259 42.2063 24.7689 41.8634 24.7689 41.4404C24.7689 41.0175 24.426 40.6746 24.003 40.6746Z" fill="#32245B"/>
<path d="M30.0578 28.9622C29.7015 29.1901 29.5973 29.6638 29.8252 30.0201C30.8216 31.578 31.1515 33.4306 30.7544 35.2368C30.6635 35.6499 30.9248 36.0584 31.338 36.1493C31.3933 36.1614 31.4487 36.1673 31.5031 36.1673C31.8549 36.1673 32.1717 35.9234 32.2504 35.5657C32.7353 33.3599 32.3324 31.0974 31.1157 29.1948C30.8878 28.8384 30.4141 28.7343 30.0578 28.9622Z" fill="#32245B"/>
<path d="M47.7272 11.7763C47.0664 8.77138 45.2751 6.20356 42.683 4.54601C37.3323 1.12439 30.1953 2.69351 26.7734 8.04441L25.1729 10.5473C24.945 10.9036 25.0491 11.3772 25.4054 11.6051C25.7618 11.8329 26.2355 11.7289 26.4632 11.3725L28.0638 8.86961C31.0306 4.23047 37.2185 2.86977 41.8576 5.83645C44.105 7.27364 45.6582 9.49987 46.2311 12.1053C46.8038 14.7106 46.3279 17.3831 44.8908 19.6304L39.0684 28.7351L36.9958 27.4096C36.6393 27.1818 36.1657 27.2859 35.938 27.6423C35.7101 27.9986 35.8142 28.4722 36.1705 28.7001L38.2432 30.0256L37.0881 31.8318C36.8603 32.1881 36.9643 32.6617 37.3206 32.8896C37.4485 32.9713 37.5913 33.0104 37.7325 33.0104C37.9851 33.0104 38.2324 32.8856 38.3784 32.6571L46.1811 20.4556C47.839 17.8636 48.388 14.7812 47.7272 11.7763Z" fill="#32245B"/>
<path d="M29.9988 10.8735C30.2513 10.8735 30.4986 10.7487 30.6447 10.5201C31.9227 8.52192 34.1077 7.32889 36.4896 7.32889C37.8082 7.32889 39.0937 7.7053 40.2074 8.41746C40.5636 8.64528 41.0374 8.54122 41.2651 8.18483C41.4929 7.82845 41.3889 7.35493 41.0325 7.12701C39.6721 6.25698 38.1011 5.79715 36.4896 5.79715C33.5825 5.79715 30.9151 7.25425 29.3543 9.69493C29.1264 10.0512 29.2305 10.5248 29.5868 10.7528C29.7147 10.8344 29.8576 10.8735 29.9988 10.8735Z" fill="#32245B"/>
</g>
<defs>
<clipPath id="clip0_839_12">
<rect width="48" height="48" fill="white"/>
</clipPath>
</defs>
</svg>
