<svg width="48" height="48" viewBox="0 0 48 48" fill="none" xmlns="http://www.w3.org/2000/svg">
<path d="M47.7615 43.6368L39.2483 19.839V10.7234H39.5036C39.9267 10.7234 40.2695 10.3805 40.2695 9.95746C40.2695 9.53444 39.9267 9.1915 39.5036 9.1915H27.7083C27.2852 9.1915 26.9424 9.53444 26.9424 9.95746C26.9424 10.3805 27.2852 10.7234 27.7083 10.7234H27.9637V19.8391L19.4504 43.6369C19.0522 44.75 19.1589 45.8644 19.7434 46.6943C20.3279 47.5241 21.3412 48 22.5234 48H44.6885C45.8707 48 46.884 47.5241 47.4685 46.6942C48.0529 45.8643 48.1597 44.75 47.7615 43.6368ZM46.216 45.8121C45.9181 46.2351 45.3756 46.4681 44.6885 46.4681H22.5234C21.8363 46.4681 21.2938 46.2351 20.9959 45.8121C20.698 45.3891 20.6614 44.7998 20.8928 44.1529L29.4508 20.23C29.4805 20.1471 29.4956 20.0598 29.4956 19.972V10.7234H37.7162V19.972C37.7162 20.0599 37.7314 20.1471 37.761 20.23L46.3191 44.1529C46.5505 44.7998 46.5139 45.3891 46.216 45.8121Z" fill="#32245B"/>
<path d="M30.0949 25.2516C30.1802 25.2821 30.2673 25.2965 30.3529 25.2965C30.6673 25.2965 30.9621 25.1013 31.0741 24.7883L32.5146 20.7614C32.5442 20.6786 32.5593 20.5913 32.5593 20.5035V13.0213C32.5593 12.5983 32.2165 12.2553 31.7934 12.2553C31.3703 12.2553 31.0274 12.5983 31.0274 13.0213V20.3706L29.6316 24.2724C29.4893 24.6707 29.6966 25.1091 30.0949 25.2516Z" fill="#32245B"/>
<path d="M42.1571 37.0665C42.0145 36.6681 41.5763 36.4609 41.1779 36.6034C40.7796 36.7458 40.5722 37.1843 40.7147 37.5826L42.7973 43.4043H24.4146L29.7963 28.3601H37.4155L39.6826 34.6978C39.8252 35.0961 40.2635 35.3036 40.6618 35.1609C41.0601 35.0184 41.2676 34.58 41.125 34.1817L38.6761 27.3362C38.5672 27.0316 38.2784 26.8282 37.9548 26.8282H29.2566C28.9331 26.8282 28.6444 27.0316 28.5354 27.3362L22.6056 43.9122C22.5216 44.1468 22.5571 44.4077 22.7005 44.6113C22.844 44.815 23.0776 44.9362 23.3268 44.9362H43.8846C44.1337 44.9362 44.3673 44.8149 44.5108 44.6113C44.6543 44.4077 44.6898 44.1468 44.6058 43.9122L42.1571 37.0665Z" fill="#32245B"/>
<path d="M11.2353 22.3429L9.87465 22.9506C7.85151 23.8543 6.14179 25.3153 4.93004 27.1758C4.69913 27.5303 4.79932 28.0047 5.1537 28.2356C5.28279 28.3197 5.42781 28.3598 5.5711 28.3598C5.82141 28.3598 6.06682 28.2372 6.21358 28.0118C7.26407 26.399 8.74614 25.1325 10.4994 24.3494L12.3137 23.5389C12.5896 23.4156 12.7672 23.1417 12.7672 22.8395V13.0213C12.7672 12.5983 12.4244 12.2553 12.0013 12.2553C11.5781 12.2553 11.2353 12.5983 11.2353 13.0213V22.3429Z" fill="#32245B"/>
<path d="M12.0012 10.7234C12.4244 10.7234 12.7672 10.3805 12.7672 9.95744V3.82978C12.7672 3.40677 12.4244 3.06383 12.0012 3.06383C11.5781 3.06383 11.2353 3.40677 11.2353 3.82978V9.95744C11.2353 10.3805 11.5782 10.7234 12.0012 10.7234Z" fill="#32245B"/>
<path d="M17.1415 46.2112C16.2958 46.3816 15.4254 46.4681 14.5545 46.4681C7.37455 46.4681 1.53326 40.6268 1.53326 33.4468C1.53326 28.3149 4.56216 23.6459 9.24992 21.5519C9.52587 21.4286 9.70347 21.1547 9.70347 20.8525V1.53191H19.4056V20.8526C19.4056 21.1548 19.5832 21.4287 19.8591 21.552C21.2772 22.1854 22.5609 23.0612 23.6746 24.1553C23.8237 24.3019 24.0176 24.3749 24.2114 24.3749C24.4096 24.3749 24.6079 24.2983 24.7579 24.1457C25.0543 23.8439 25.05 23.3589 24.7482 23.0626C23.6236 21.9579 22.3436 21.052 20.9375 20.3652V1.53191H21.1928C21.6159 1.53191 21.9588 1.18897 21.9588 0.765957C21.9588 0.342945 21.6159 0 21.1928 0H7.91624C7.49312 0 7.15028 0.342945 7.15028 0.765957C7.15028 1.18897 7.49312 1.53191 7.91624 1.53191H8.17156V20.3653C3.19191 22.7982 0.00134277 27.8787 0.00134277 33.4468C0.00134277 41.4715 6.52985 48 14.5545 48C15.5269 48 16.499 47.9035 17.4441 47.7129C17.8589 47.6294 18.1273 47.2255 18.0437 46.8108C17.9602 46.3962 17.5563 46.1277 17.1415 46.2112Z" fill="#32245B"/>
<path d="M21.6529 31.4239C22.0759 31.4239 22.4189 31.0809 22.4189 30.6579C22.4189 30.2349 22.076 29.892 21.6529 29.892L4.20144 29.8916C3.85543 29.8916 3.55242 30.1237 3.46203 30.4576C3.19865 31.4319 3.06506 32.4376 3.06506 33.4467C3.06506 39.782 8.21924 44.9361 14.5544 44.9361C15.4428 44.9361 16.3285 44.8336 17.1869 44.6316C17.5985 44.5347 17.8539 44.1223 17.7569 43.7105C17.6599 43.2988 17.2477 43.0435 16.8358 43.1405C16.0924 43.3154 15.3248 43.4042 14.5543 43.4042C9.06374 43.4042 4.59688 38.9373 4.59688 33.4467C4.59688 32.7667 4.66694 32.0885 4.80542 31.4235L21.6529 31.4239Z" fill="#32245B"/>
</svg>
