<svg width="48" height="48" viewBox="0 0 48 48" fill="none" xmlns="http://www.w3.org/2000/svg">
<path d="M7.5 38.766L12.8445 34.5H37.5015C38.3455 34.469 39.0485 34.172 39.6105 33.609C40.1725 33.046 40.4695 32.343 40.5015 31.5V12C40.4705 11.156 40.1735 10.453 39.6105 9.891C39.0475 9.329 38.3445 9.032 37.5015 9H10.5015C9.6575 9.031 8.9545 9.328 8.3925 9.891C7.8305 10.454 7.5335 11.157 7.5015 12V38.766H7.5ZM13.875 37.5L6.9375 43.032C6.4375 43.407 5.914 43.4615 5.367 43.1955C4.82 42.9295 4.531 42.484 4.5 41.859V12C4.531 10.312 5.117 8.898 6.258 7.758C7.399 6.618 8.813 6.032 10.5 6H37.5C39.188 6.031 40.602 6.617 41.742 7.758C42.882 8.899 43.468 10.313 43.5 12V31.5C43.469 33.188 42.883 34.602 41.742 35.742C40.601 36.882 39.187 37.468 37.5 37.5H13.875ZM16.5 24H31.5C32.5 24 33 24.5 33 25.5C33 26.5 32.5 27 31.5 27H16.5C15.5 27 15 26.5 15 25.5C15 24.5 15.5 24 16.5 24ZM16.5 15H31.5C32.5 15 33 15.5 33 16.5C33 17.5 32.5 18 31.5 18H16.5C15.5 18 15 17.5 15 16.5C15 15.5 15.5 15 16.5 15Z" fill="#32245B"/>
</svg>
