<svg width="49" height="49" viewBox="0 0 49 49" fill="none" xmlns="http://www.w3.org/2000/svg">
<path d="M38.5 22.25H10.5C8.29086 22.25 6.5 24.0409 6.5 26.25V40.25C6.5 42.4591 8.29086 44.25 10.5 44.25H38.5C40.7091 44.25 42.5 42.4591 42.5 40.25V26.25C42.5 24.0409 40.7091 22.25 38.5 22.25Z" stroke="#32245B" stroke-width="3" stroke-linecap="round" stroke-linejoin="round"/>
<path d="M14.5 22.25V14.25C14.5 11.5978 15.5536 9.0543 17.4289 7.17893C19.3043 5.30357 21.8478 4.25 24.5 4.25C27.1522 4.25 29.6957 5.30357 31.5711 7.17893C33.4464 9.0543 34.5 11.5978 34.5 14.25V22.25" stroke="#32245B" stroke-width="3" stroke-linecap="round" stroke-linejoin="round"/>
</svg>
