<svg width="48" height="48" viewBox="0 0 48 48" fill="none" xmlns="http://www.w3.org/2000/svg">
<path d="M18 44C19.1046 44 20 43.1046 20 42C20 40.8954 19.1046 40 18 40C16.8954 40 16 40.8954 16 42C16 43.1046 16.8954 44 18 44Z" stroke="#333984" stroke-width="3" stroke-linecap="round" stroke-linejoin="round"/>
<path d="M40 44C41.1046 44 42 43.1046 42 42C42 40.8954 41.1046 40 40 40C38.8954 40 38 40.8954 38 42C38 43.1046 38.8954 44 40 44Z" stroke="#333984" stroke-width="3" stroke-linecap="round" stroke-linejoin="round"/>
<path d="M2 2H10L15.36 28.78C15.5429 29.7008 16.0438 30.5279 16.7751 31.1166C17.5064 31.7053 18.4214 32.018 19.36 32H38.8C39.7386 32.018 40.6536 31.7053 41.3849 31.1166C42.1162 30.5279 42.6171 29.7008 42.8 28.78L46 12H12" stroke="#333984" stroke-width="3" stroke-linecap="round" stroke-linejoin="round"/>
</svg>
